<?xml version="1.0" encoding="UTF-8" standalone="no"?>
<!-- Created with Inkscape (http://www.inkscape.org/) -->

<svg
   xmlns:dc="http://purl.org/dc/elements/1.1/"
   xmlns:cc="http://creativecommons.org/ns#"
   xmlns:rdf="http://www.w3.org/1999/02/22-rdf-syntax-ns#"
   xmlns:svg="http://www.w3.org/2000/svg"
   xmlns="http://www.w3.org/2000/svg"
   xmlns:sodipodi="http://sodipodi.sourceforge.net/DTD/sodipodi-0.dtd"
   xmlns:inkscape="http://www.inkscape.org/namespaces/inkscape"
   version="1.1"
   id="svg1259"
   xml:space="preserve"
   width="340.00018mm"
   height="96mm"
   viewBox="0 0 1285.04 362.83466"
   sodipodi:docname="Horizontal Word Clock.svg"
   inkscape:version="0.92.4 (5da689c313, 2019-01-14)"><metadata
     id="metadata1265"><rdf:RDF><cc:Work
         rdf:about=""><dc:format>image/svg+xml</dc:format><dc:type
           rdf:resource="http://purl.org/dc/dcmitype/StillImage" /><dc:title></dc:title></cc:Work></rdf:RDF></metadata><defs
     id="defs1263"><clipPath
       clipPathUnits="userSpaceOnUse"
       id="clipPath1279"><path
         d="M 0,272.126 H 963.78 V 0 H 0 Z"
         id="path1277"
         inkscape:connector-curvature="0" /></clipPath></defs><sodipodi:namedview
     pagecolor="#ffffff"
     bordercolor="#666666"
     borderopacity="1"
     objecttolerance="10"
     gridtolerance="10"
     guidetolerance="10"
     inkscape:pageopacity="0"
     inkscape:pageshadow="2"
     inkscape:window-width="2880"
     inkscape:window-height="1515"
     id="namedview1261"
     showgrid="false"
     inkscape:zoom="1.4142136"
     inkscape:cx="769.78241"
     inkscape:cy="357.1788"
     inkscape:window-x="-13"
     inkscape:window-y="-13"
     inkscape:window-maximized="1"
     inkscape:current-layer="g3431"
     units="mm" /><g
     id="g1267"
     inkscape:groupmode="layer"
     inkscape:label="Vertical_Wordclock"
     transform="matrix(1.3333333,0,0,-1.3333333,0,362.83467)"><g
       id="g2473"
       transform="rotate(180,481.8903,136.063)"><g
         id="g1273"><g
           clip-path="url(#clipPath1279)"
           id="g1275"><g
             id="g3431"><g
               id="g1269"
               transform="matrix(0.97680672,0,0,1,20.971032,268.9631)"><path
                 d="M 0,0 H 957.24"
                 style="fill:none;stroke:#231f20;stroke-width:0.21600001;stroke-linecap:butt;stroke-linejoin:miter;stroke-miterlimit:2.61299992;stroke-dasharray:none;stroke-opacity:1"
                 id="path1271"
                 inkscape:connector-curvature="0" /></g><g
               id="g1281"
               transform="translate(956.0095,17.5632)"><path
                 d="M 0,0 C 0,-7.932 -5.658,-14.4 -12.596,-14.4"
                 style="fill:none;stroke:#231f20;stroke-width:0.21600001;stroke-linecap:butt;stroke-linejoin:miter;stroke-miterlimit:2.61299992;stroke-dasharray:none;stroke-opacity:1"
                 id="path1283"
                 inkscape:connector-curvature="0" /></g><g
               id="g1285"
               transform="translate(33.637006,3.1597629)"><path
                 d="M 0,0 C -6.937,0 -12.595,6.469 -12.595,14.4"
                 style="fill:none;stroke:#231f20;stroke-width:0.21600001;stroke-linecap:butt;stroke-linejoin:miter;stroke-miterlimit:2.61299992;stroke-dasharray:none;stroke-opacity:1"
                 id="path1287"
                 inkscape:connector-curvature="0" /></g><g
               id="g1289"
               transform="matrix(1,0,0,1.0013486,5.6709548,269.26249)"><path
                 d="M 15.369851,-0.22602721 V -251.62603"
                 style="fill:none;stroke:#231f20;stroke-width:0.21600001;stroke-linecap:butt;stroke-linejoin:miter;stroke-miterlimit:2.61299992;stroke-dasharray:none;stroke-opacity:1"
                 id="path1291"
                 inkscape:connector-curvature="0" /></g><g
               id="g1293"
               transform="translate(956.0095,268.9631)"><path
                 d="M 0,0 V -251.4"
                 style="fill:none;stroke:#231f20;stroke-width:0.21600001;stroke-linecap:butt;stroke-linejoin:miter;stroke-miterlimit:2.61299992;stroke-dasharray:none;stroke-opacity:1"
                 id="path1295"
                 inkscape:connector-curvature="0" /></g><g
               id="g1297"
               transform="matrix(0.97643189,0,0,1,943.54271,3.1628)"><path
                 d="M 0,0 H -932.048"
                 style="fill:none;stroke:#231f20;stroke-width:0.21600001;stroke-linecap:butt;stroke-linejoin:miter;stroke-miterlimit:2.61299992;stroke-dasharray:none;stroke-opacity:1"
                 id="path1299"
                 inkscape:connector-curvature="0" /></g><g
               id="g1301"
               transform="translate(918.6824,61.9636)"><path
                 d="m 0,0 c 0,-1.901 -1.962,-3.45 -4.367,-3.45 h -2.184 c -2.405,0 -4.367,1.549 -4.367,3.45 m 0,0 V 206.999 H 0 V 0"
                 style="fill:none;stroke:#231f20;stroke-width:0.21600001;stroke-linecap:butt;stroke-linejoin:miter;stroke-miterlimit:2.61299992;stroke-dasharray:none;stroke-opacity:1"
                 id="path1303"
                 inkscape:connector-curvature="0" /></g><g
               id="g1305"
               transform="translate(871.45,61.9636)"><path
                 d="m 0,0 c 0,-1.901 -1.962,-3.45 -4.367,-3.45 h -2.184 c -2.405,0 -4.367,1.549 -4.367,3.45 m 0,0 V 206.999 H 0 V 0"
                 style="fill:none;stroke:#231f20;stroke-width:0.21600001;stroke-linecap:butt;stroke-linejoin:miter;stroke-miterlimit:2.61299992;stroke-dasharray:none;stroke-opacity:1"
                 id="path1307"
                 inkscape:connector-curvature="0" /></g><g
               id="g1309"
               transform="translate(824.2175,61.9636)"><path
                 d="m 0,0 c 0,-1.901 -1.962,-3.45 -4.367,-3.45 h -2.184 c -2.405,0 -4.367,1.549 -4.367,3.45 m 0,0 V 206.999 H 0 V 0"
                 style="fill:none;stroke:#231f20;stroke-width:0.21600001;stroke-linecap:butt;stroke-linejoin:miter;stroke-miterlimit:2.61299992;stroke-dasharray:none;stroke-opacity:1"
                 id="path1311"
                 inkscape:connector-curvature="0" /></g><g
               id="g1313"
               transform="translate(776.9856,61.9636)"><path
                 d="M 0,0 C 0,-1.901 -1.961,-3.45 -4.367,-3.45 H -6.55 c -2.406,0 -4.367,1.549 -4.367,3.45 m 0,0 V 206.999 H 0 V 0"
                 style="fill:none;stroke:#231f20;stroke-width:0.21600001;stroke-linecap:butt;stroke-linejoin:miter;stroke-miterlimit:2.61299992;stroke-dasharray:none;stroke-opacity:1"
                 id="path1315"
                 inkscape:connector-curvature="0" /></g><g
               id="g1317"
               transform="translate(729.7542,61.8942)"><path
                 d="m 0,0 c 0,-1.9 -1.962,-3.45 -4.367,-3.45 h -2.184 c -2.405,0 -4.367,1.55 -4.367,3.45 m 0,0 V 207 H 0 V 0"
                 style="fill:none;stroke:#231f20;stroke-width:0.21600001;stroke-linecap:butt;stroke-linejoin:miter;stroke-miterlimit:2.61299992;stroke-dasharray:none;stroke-opacity:1"
                 id="path1319"
                 inkscape:connector-curvature="0" /></g><g
               id="g1321"
               transform="translate(683.2371,61.9636)"><path
                 d="m 0,0 c 0,-1.901 -1.962,-3.45 -4.367,-3.45 h -2.184 c -2.405,0 -4.367,1.549 -4.367,3.45 m 0,0 V 206.999 H 0 V 0"
                 style="fill:none;stroke:#231f20;stroke-width:0.21600001;stroke-linecap:butt;stroke-linejoin:miter;stroke-miterlimit:2.61299992;stroke-dasharray:none;stroke-opacity:1"
                 id="path1323"
                 inkscape:connector-curvature="0" /></g><g
               id="g1325"
               transform="translate(635.2898,61.9636)"><path
                 d="m 0,0 c 0,-1.901 -1.962,-3.45 -4.367,-3.45 h -2.184 c -2.405,0 -4.366,1.549 -4.366,3.45 m 0,0 V 206.999 H 0 V 0"
                 style="fill:none;stroke:#231f20;stroke-width:0.21600001;stroke-linecap:butt;stroke-linejoin:miter;stroke-miterlimit:2.61299992;stroke-dasharray:none;stroke-opacity:1"
                 id="path1327"
                 inkscape:connector-curvature="0" /></g><g
               id="g1329"
               transform="translate(588.0579,61.9636)"><path
                 d="m 0,0 c 0,-1.901 -1.962,-3.45 -4.367,-3.45 h -2.184 c -2.405,0 -4.367,1.549 -4.367,3.45 m 0,0 V 206.999 H 0 V 0"
                 style="fill:none;stroke:#231f20;stroke-width:0.21600001;stroke-linecap:butt;stroke-linejoin:miter;stroke-miterlimit:2.61299992;stroke-dasharray:none;stroke-opacity:1"
                 id="path1331"
                 inkscape:connector-curvature="0" /></g><g
               id="g1333"
               transform="translate(540.8259,61.9636)"><path
                 d="m 0,0 c 0,-1.901 -1.962,-3.45 -4.367,-3.45 h -2.184 c -2.406,0 -4.367,1.549 -4.367,3.45 m 0,0 V 206.999 H 0 V 0"
                 style="fill:none;stroke:#231f20;stroke-width:0.21600001;stroke-linecap:butt;stroke-linejoin:miter;stroke-miterlimit:2.61299992;stroke-dasharray:none;stroke-opacity:1"
                 id="path1335"
                 inkscape:connector-curvature="0" /></g><g
               id="g1337"
               transform="translate(493.5935,61.9636)"><path
                 d="M 0,0 C 0,-1.901 -1.962,-3.45 -4.367,-3.45 H -6.55 c -2.406,0 -4.367,1.549 -4.367,3.45 m 0,0 V 206.999 H 0 V 0"
                 style="fill:none;stroke:#231f20;stroke-width:0.21600001;stroke-linecap:butt;stroke-linejoin:miter;stroke-miterlimit:2.61299992;stroke-dasharray:none;stroke-opacity:1"
                 id="path1339"
                 inkscape:connector-curvature="0" /></g><g
               id="g1341"
               transform="translate(446.3616,60.1101)"><path
                 d="M 0,0 C 0,-1.917 -1.961,-3.481 -4.367,-3.481 H -6.55 c -2.406,0 -4.367,1.564 -4.367,3.481 m 0,0 V 208.853 H 0 V 0"
                 style="fill:none;stroke:#231f20;stroke-width:0.21600001;stroke-linecap:butt;stroke-linejoin:miter;stroke-miterlimit:2.61299992;stroke-dasharray:none;stroke-opacity:1"
                 id="path1343"
                 inkscape:connector-curvature="0" /></g><g
               id="g1345"
               transform="translate(399.1296,61.9636)"><path
                 d="M 0,0 C 0,-1.901 -1.962,-3.45 -4.367,-3.45 H -6.55 c -2.406,0 -4.367,1.549 -4.367,3.45 m 0,0 V 206.999 H 0 V 0"
                 style="fill:none;stroke:#231f20;stroke-width:0.21600001;stroke-linecap:butt;stroke-linejoin:miter;stroke-miterlimit:2.61299992;stroke-dasharray:none;stroke-opacity:1"
                 id="path1347"
                 inkscape:connector-curvature="0" /></g><g
               id="g1349"
               transform="translate(351.8977,61.9636)"><path
                 d="m 0,0 c 0,-1.901 -1.962,-3.45 -4.367,-3.45 h -2.184 c -2.405,0 -4.366,1.549 -4.366,3.45 m 0,0 V 206.999 H 0 V 0"
                 style="fill:none;stroke:#231f20;stroke-width:0.21600001;stroke-linecap:butt;stroke-linejoin:miter;stroke-miterlimit:2.61299992;stroke-dasharray:none;stroke-opacity:1"
                 id="path1351"
                 inkscape:connector-curvature="0" /></g><g
               id="g1353"
               transform="translate(304.6658,61.0192)"><path
                 d="m 0,0 c 0,-1.909 -1.962,-3.466 -4.367,-3.466 h -2.184 c -2.405,0 -4.366,1.557 -4.366,3.466 m 0,0 V 207.944 H 0 V 0"
                 style="fill:none;stroke:#231f20;stroke-width:0.21600001;stroke-linecap:butt;stroke-linejoin:miter;stroke-miterlimit:2.61299992;stroke-dasharray:none;stroke-opacity:1"
                 id="path1355"
                 inkscape:connector-curvature="0" /></g><g
               id="g1357"
               transform="translate(257.4333,61.9636)"><path
                 d="M 0,0 C 0,-1.901 -1.961,-3.45 -4.367,-3.45 H -6.55 c -2.406,0 -4.367,1.549 -4.367,3.45 m 0,0 V 206.999 H 0 V 0"
                 style="fill:none;stroke:#231f20;stroke-width:0.21600001;stroke-linecap:butt;stroke-linejoin:miter;stroke-miterlimit:2.61299992;stroke-dasharray:none;stroke-opacity:1"
                 id="path1359"
                 inkscape:connector-curvature="0" /></g><g
               id="g1361"
               transform="translate(210.2014,61.9636)"><path
                 d="m 0,0 c 0,-1.901 -1.961,-3.45 -4.367,-3.45 h -2.184 c -2.405,0 -4.366,1.549 -4.366,3.45 m 0,0 V 206.999 H 0 V 0"
                 style="fill:none;stroke:#231f20;stroke-width:0.21600001;stroke-linecap:butt;stroke-linejoin:miter;stroke-miterlimit:2.61299992;stroke-dasharray:none;stroke-opacity:1"
                 id="path1363"
                 inkscape:connector-curvature="0" /></g><g
               id="g1365"
               transform="translate(162.9695,61.9636)"><path
                 d="m 0,0 c 0,-1.901 -1.962,-3.45 -4.367,-3.45 h -2.184 c -2.405,0 -4.367,1.549 -4.367,3.45 m 0,0 V 206.999 H 0 V 0"
                 style="fill:none;stroke:#231f20;stroke-width:0.21600001;stroke-linecap:butt;stroke-linejoin:miter;stroke-miterlimit:2.61299992;stroke-dasharray:none;stroke-opacity:1"
                 id="path1367"
                 inkscape:connector-curvature="0" /></g><g
               id="g1369"
               transform="translate(115.7375,61.9636)"><path
                 d="m 0,0 c 0,-1.901 -1.962,-3.45 -4.367,-3.45 h -2.184 c -2.405,0 -4.367,1.549 -4.367,3.45 m 0,0 V 206.999 H 0 V 0"
                 style="fill:none;stroke:#231f20;stroke-width:0.21600001;stroke-linecap:butt;stroke-linejoin:miter;stroke-miterlimit:2.61299992;stroke-dasharray:none;stroke-opacity:1"
                 id="path1371"
                 inkscape:connector-curvature="0" /></g><g
               id="g1373"
               transform="translate(68.5056,61.9636)"><path
                 d="m 0,0 c 0,-1.901 -1.962,-3.45 -4.367,-3.45 h -2.184 c -2.405,0 -4.367,1.549 -4.367,3.45 m 0,0 V 206.999 H 0 V 0"
                 style="fill:none;stroke:#231f20;stroke-width:0.21600001;stroke-linecap:butt;stroke-linejoin:miter;stroke-miterlimit:2.61299992;stroke-dasharray:none;stroke-opacity:1"
                 id="path1375"
                 inkscape:connector-curvature="0" /></g></g><g
             id="g3377"
             transform="translate(-219.51374,12.22583)"><g
               transform="rotate(-90,615.88156,-542.49677)"
               id="g120"><path
                 inkscape:connector-curvature="0"
                 id="path122"
                 style="fill:#231f20;fill-opacity:1;fill-rule:nonzero;stroke:none"
                 d="m 0,0 h 16.666 v 5.951 h 3.396 V -9.991 h -3.396 v 5.937 L 0,-4.054 Z" /></g><g
               transform="rotate(-90,629.67015,-535.06368)"
               id="g124"><path
                 inkscape:connector-curvature="0"
                 id="path126"
                 style="fill:#231f20;fill-opacity:1;fill-rule:nonzero;stroke:none"
                 d="M 0,0 20.062,4.788 V 0.645 l -13.78,-3.027 13.78,-3.667 v -4.816 l -14.013,-3.518 14.013,-3.078 v -4.078 L 0,-16.667 v 4.298 L 14.999,-8.375 0,-4.391 Z" /></g><g
               transform="rotate(-90,651.36026,-512.95756)"
               id="g132"><path
                 inkscape:connector-curvature="0"
                 id="path134"
                 style="fill:#231f20;fill-opacity:1;fill-rule:nonzero;stroke:none"
                 d="M 0,0 H 20.062 V -3.942 L 6.665,-12.154 h 13.397 v -3.765 H 0 v 4.068 l 13.084,8.086 H 0 Z" /></g><g
               transform="rotate(-90,659.23746,-499.14086)"
               id="g136"><path
                 inkscape:connector-curvature="0"
                 id="path138"
                 style="fill:#231f20;fill-opacity:1;fill-rule:nonzero;stroke:none"
                 d="m 0,0 h 16.666 v 5.951 h 3.396 V -9.991 h -3.396 v 5.936 H 0 Z" /></g><g
               transform="rotate(-90,670.22975,-488.16257)"
               id="g140"><path
                 inkscape:connector-curvature="0"
                 id="path142"
                 style="fill:#231f20;fill-opacity:1;fill-rule:nonzero;stroke:none"
                 d="M 0,0 H 8.445 L 20.062,7.348 V 2.597 l -7.936,-4.722 7.936,-4.625 v -4.666 L 8.417,-4.041 H 0 Z" /></g><g
               transform="rotate(-90,595.26561,-521.88082)"
               id="g144"><path
                 inkscape:connector-curvature="0"
                 id="path146"
                 style="fill:#231f20;fill-opacity:1;fill-rule:nonzero;stroke:none"
                 d="m 0,0 h 20.062 v -4.055 h -7.893 v -7.936 h 7.893 v -4.05 H 0 v 4.05 h 8.772 v 7.936 H 0 Z" /></g><g
               transform="rotate(-90,596.59495,-509.92448)"
               id="g148"><path
                 inkscape:connector-curvature="0"
                 id="path150"
                 style="fill:#231f20;fill-opacity:1;fill-rule:nonzero;stroke:none"
                 d="M 0,0 7.445,2.766 0,5.475 Z m -7.937,-7.46 v 4.41 l 4.56,1.751 v 8.021 l -4.56,1.653 v 4.298 L 12.126,4.858 V 0.575 Z" /></g><g
               transform="rotate(-90,627.20331,-488.80061)"
               id="g156"><path
                 inkscape:connector-curvature="0"
                 id="path158"
                 style="fill:#231f20;fill-opacity:1;fill-rule:nonzero;stroke:none"
                 d="m 0,0 h 20.062 v -13.756 h -3.395 v 9.702 H 11.921 V -12.43 H 8.525 v 8.376 H 0 Z" /></g><g
               transform="rotate(-90,568.64941,-495.26462)"
               id="g160"><path
                 inkscape:connector-curvature="0"
                 id="path162"
                 style="fill:#231f20;fill-opacity:1;fill-rule:nonzero;stroke:none"
                 d="m 0,0 h 16.667 v 5.951 h 3.395 V -9.991 h -3.395 v 5.937 L 0,-4.054 Z" /></g><g
               transform="rotate(-90,582.06425,-487.45779)"
               id="g164"><path
                 inkscape:connector-curvature="0"
                 id="path166"
                 style="fill:#231f20;fill-opacity:1;fill-rule:nonzero;stroke:none"
                 d="M 0,0 H 20.062 V -14.873 H 16.667 V -4.05 H 12.22 V -14.121 H 8.842 V -4.05 H 3.382 V -15.256 H 0 Z" /></g><g
               transform="rotate(-90,539.36895,-471.65017)"
               id="g172"><path
                 inkscape:connector-curvature="0"
                 id="path174"
                 style="fill:#231f20;fill-opacity:1;fill-rule:nonzero;stroke:none"
                 d="m 0,0 c 0.612,-0.523 1.35,-0.911 2.219,-1.172 0.864,-0.257 1.859,-0.388 2.98,-0.388 2.322,0 4.05,0.509 5.194,1.532 1.145,1.023 1.719,2.359 1.719,4.007 0,1.654 -0.574,2.99 -1.724,4.018 -1.149,1.027 -2.877,1.542 -5.189,1.542 -2.34,0 -4.097,-0.515 -5.26,-1.542 -1.163,-1.028 -1.747,-2.322 -1.747,-3.891 0,-0.584 0.099,-1.14 0.289,-1.658 0.538,0.822 0.958,1.658 1.262,2.503 L 2.055,3.816 C 1.598,2.485 0.916,1.209 0,0 m -2.284,-3.261 c -0.71,-0.989 -1.28,-2.073 -1.696,-3.241 l -2.863,1.49 c 0.182,0.612 0.434,1.21 0.752,1.793 0.065,0.131 0.658,1.028 1.779,2.696 -0.574,1.317 -0.859,2.77 -0.859,4.367 0,3.083 0.906,5.498 2.723,7.245 1.813,1.747 4.363,2.62 7.647,2.62 3.279,0 5.825,-0.873 7.646,-2.625 1.818,-1.751 2.728,-4.129 2.728,-7.132 0,-2.971 -0.91,-5.33 -2.728,-7.073 -1.821,-1.742 -4.367,-2.615 -7.646,-2.615 -1.733,0 -3.256,0.243 -4.568,0.724 -1.005,0.369 -1.976,0.952 -2.915,1.751" /></g><g
               transform="rotate(-90,548.2491,-473.70463)"
               id="g176"><path
                 inkscape:connector-curvature="0"
                 id="path178"
                 style="fill:#231f20;fill-opacity:1;fill-rule:nonzero;stroke:none"
                 d="m 0,0 v -4.05 h -10.865 c -1.724,0 -2.845,-0.052 -3.354,-0.15 -0.822,-0.173 -1.481,-0.588 -1.976,-1.237 -0.5,-0.654 -0.747,-1.546 -0.747,-2.677 0,-1.149 0.234,-2.018 0.705,-2.602 0.467,-0.584 1.047,-0.934 1.729,-1.051 0.686,-0.121 1.821,-0.177 3.409,-0.177 H 0 v -4.05 h -10.538 c -2.41,0 -4.11,0.107 -5.106,0.327 -0.995,0.219 -1.831,0.621 -2.517,1.209 -0.682,0.589 -1.229,1.378 -1.635,2.359 -0.407,0.986 -0.607,2.275 -0.607,3.864 0,1.915 0.219,3.367 0.663,4.358 0.444,0.99 1.018,1.77 1.723,2.345 0.706,0.574 1.449,0.952 2.224,1.135 1.149,0.266 2.845,0.397 5.091,0.397 z" /></g><g
               transform="rotate(-90,572.78716,-445.96447)"
               id="g184"><path
                 inkscape:connector-curvature="0"
                 id="path186"
                 style="fill:#231f20;fill-opacity:1;fill-rule:nonzero;stroke:none"
                 d="m 0,0 v -2.994 c 0,-1.943 0.079,-3.158 0.243,-3.644 0.163,-0.481 0.448,-0.859 0.85,-1.134 0.402,-0.271 0.901,-0.412 1.504,-0.412 0.677,0 1.219,0.183 1.634,0.542 0.416,0.36 0.678,0.869 0.79,1.528 0.042,0.326 0.065,1.312 0.065,2.957 V 0 Z M -11.58,4.055 H 8.482 v -8.53 c 0,-2.144 -0.182,-3.699 -0.542,-4.671 -0.359,-0.971 -0.999,-1.751 -1.919,-2.335 -0.925,-0.584 -1.976,-0.874 -3.163,-0.874 -1.504,0 -2.751,0.444 -3.732,1.327 -0.976,0.882 -1.597,2.209 -1.85,3.97 -0.513,-0.878 -1.074,-1.602 -1.686,-2.172 -0.612,-0.57 -1.695,-1.336 -3.256,-2.303 l -3.914,-2.452 v 4.844 l 4.368,2.929 c 1.56,1.041 2.541,1.751 2.947,2.134 0.406,0.384 0.682,0.789 0.836,1.219 0.15,0.43 0.224,1.108 0.224,2.042 V 0 h -8.375 z" /></g><g
               transform="rotate(-90,670.15016,-493.83616)"
               id="g128"><path
                 inkscape:connector-curvature="0"
                 id="path130"
                 style="fill:#231f20;fill-opacity:1;fill-rule:nonzero;stroke:none"
                 d="M 59.999,0 H 80.061 V -14.873 H 76.665 V -4.05 H 72.219 V -14.121 H 68.841 V -4.05 h -5.46 v -11.206 h -3.382 z" /></g><g
               transform="rotate(-90,587.95166,-427.85507)"
               id="g188"><path
                 inkscape:connector-curvature="0"
                 id="path190"
                 style="fill:#231f20;fill-opacity:1;fill-rule:nonzero;stroke:none"
                 d="m 0,0 h 16.667 v 5.951 h 3.395 V -9.991 h -3.395 v 5.937 L 0,-4.054 Z" /></g><g
               transform="rotate(-90,601.74096,-419.67377)"
               id="g192"><path
                 inkscape:connector-curvature="0"
                 id="path194"
                 style="fill:#231f20;fill-opacity:1;fill-rule:nonzero;stroke:none"
                 d="M 0,0 H 20.062 V -14.873 H 16.667 V -4.05 H 12.22 V -14.121 H 8.842 V -4.05 H 3.382 V -15.256 H 0 Z" /></g><g
               transform="rotate(-90,605.28811,-413.46351)"
               id="g196"><path
                 inkscape:connector-curvature="0"
                 id="path198"
                 style="fill:#231f20;fill-opacity:1;fill-rule:nonzero;stroke:none"
                 d="m 0,0 v -2.994 c 0,-1.943 0.079,-3.157 0.243,-3.644 0.163,-0.481 0.448,-0.859 0.85,-1.134 0.402,-0.272 0.901,-0.412 1.504,-0.412 0.677,0 1.219,0.182 1.634,0.542 0.416,0.36 0.678,0.869 0.79,1.528 0.042,0.326 0.065,1.312 0.065,2.957 V 0 Z M -11.58,4.055 H 8.482 v -8.53 c 0,-2.144 -0.182,-3.7 -0.542,-4.671 -0.359,-0.971 -0.999,-1.751 -1.919,-2.335 -0.925,-0.584 -1.976,-0.874 -3.163,-0.874 -1.504,0 -2.751,0.444 -3.732,1.327 -0.976,0.882 -1.597,2.209 -1.85,3.969 -0.513,-0.878 -1.074,-1.601 -1.686,-2.171 -0.612,-0.57 -1.695,-1.336 -3.256,-2.303 l -3.914,-2.452 v 4.843 l 4.368,2.929 c 1.56,1.042 2.541,1.752 2.947,2.135 0.406,0.384 0.682,0.789 0.836,1.22 0.15,0.429 0.224,1.106 0.224,2.041 V 0 h -8.375 z" /></g><g
               transform="rotate(-90,523.84646,-450.46167)"
               id="g200"><path
                 inkscape:connector-curvature="0"
                 id="path202"
                 style="fill:#231f20;fill-opacity:1;fill-rule:nonzero;stroke:none"
                 d="m 0,0 h 20.062 v -13.756 h -3.395 v 9.702 h -4.746 v -8.375 H 8.525 v 8.375 H 0 Z" /></g><path
               inkscape:connector-curvature="0"
               id="path204"
               style="fill:#231f20;fill-opacity:1;fill-rule:nonzero;stroke:none;stroke-width:0.99999994"
               d="m 969.45482,94.60646 v -20.062 h -4.05 v 20.062 z" /><g
               transform="rotate(-90,556.73041,-418.32771)"
               id="g210"><path
                 inkscape:connector-curvature="0"
                 id="path212"
                 style="fill:#231f20;fill-opacity:1;fill-rule:nonzero;stroke:none"
                 d="M 0,0 H 20.062 V -14.873 H 16.667 V -4.05 H 12.22 V -14.121 H 8.842 V -4.05 H 3.382 V -15.256 H 0 Z" /></g><g
               transform="rotate(-90,616.29145,-499.97647)"
               id="g152"><path
                 inkscape:connector-curvature="0"
                 id="path154"
                 style="fill:#231f20;fill-opacity:1;fill-rule:nonzero;stroke:none"
                 d="M 0,0 H 19.899 V -4.05 H 3.382 V -14.121 H 0 Z" /></g><g
               transform="matrix(0,-1,-1,0,918.17822,73.38478)"
               id="g214"><path
                 inkscape:connector-curvature="0"
                 id="path216"
                 style="fill:#231f20;fill-opacity:1;fill-rule:nonzero;stroke:none"
                 d="m 0,0 h 16.667 v 5.951 h 3.395 V -9.991 h -3.395 v 5.937 L 0,-4.054 Z" /></g><g
               transform="matrix(0,-1,-1,0,914.63912,84.90446)"
               id="g218"><path
                 inkscape:connector-curvature="0"
                 id="path220"
                 style="fill:#231f20;fill-opacity:1;fill-rule:nonzero;stroke:none"
                 d="m 0,0 c -2.27,0 -3.994,-0.528 -5.167,-1.574 -1.172,-1.051 -1.756,-2.383 -1.756,-3.999 0,-1.612 0.579,-2.938 1.747,-3.975 1.163,-1.032 2.906,-1.551 5.232,-1.551 2.298,0 4.012,0.505 5.147,1.509 1.131,1.009 1.696,2.35 1.696,4.017 0,1.673 -0.575,3.018 -1.719,4.041 C 4.036,-0.514 2.312,0 0,0 M -0.136,4.171 C 1.91,4.171 3.625,3.868 5.012,3.256 6.03,2.798 6.95,2.177 7.763,1.387 8.571,0.598 9.174,-0.266 9.566,-1.205 c 0.533,-1.252 0.794,-2.691 0.794,-4.326 0,-2.956 -0.915,-5.32 -2.751,-7.095 -1.831,-1.775 -4.381,-2.663 -7.647,-2.663 -3.241,0 -5.773,0.883 -7.604,2.644 -1.826,1.761 -2.742,4.116 -2.742,7.058 0,2.985 0.911,5.358 2.728,7.119 1.822,1.761 4.33,2.639 7.52,2.639" /></g><g
               transform="rotate(-90,466.65935,-409.94107)"
               id="g222"><path
                 inkscape:connector-curvature="0"
                 id="path224"
                 style="fill:#231f20;fill-opacity:1;fill-rule:nonzero;stroke:none"
                 d="m 0,0 h -5.689 v -2.214 c 0,-1.598 0.102,-2.667 0.313,-3.204 0.209,-0.538 0.537,-0.958 0.985,-1.267 0.449,-0.303 0.967,-0.458 1.56,-0.458 0.729,0 1.331,0.216 1.808,0.645 0.472,0.425 0.771,0.972 0.887,1.626 C -0.042,-4.387 0,-3.415 0,-1.958 Z M -16.667,4.05 H 3.396 V -2.448 C 3.396,-4.91 3.293,-6.517 3.092,-7.264 2.793,-8.413 2.139,-9.38 1.13,-10.155 c -1.009,-0.776 -2.312,-1.163 -3.904,-1.163 -1.234,0 -2.271,0.224 -3.107,0.672 -0.841,0.449 -1.499,1.014 -1.981,1.705 -0.476,0.687 -0.794,1.388 -0.948,2.098 -0.191,0.967 -0.29,2.368 -0.29,4.203 V 0 h -7.567 z" /></g><g
               transform="rotate(-90,478.5149,-391.84443)"
               id="g226"><path
                 inkscape:connector-curvature="0"
                 id="path228"
                 style="fill:#231f20;fill-opacity:1;fill-rule:nonzero;stroke:none"
                 d="M 0,0 7.446,2.766 0,5.475 Z m -7.936,-7.459 v 4.409 l 4.559,1.752 v 8.02 l -4.559,1.653 v 4.298 L 12.126,4.858 V 0.575 Z" /></g><g
               transform="rotate(-90,506.69481,-368.29212)"
               id="g234"><path
                 inkscape:connector-curvature="0"
                 id="path236"
                 style="fill:#231f20;fill-opacity:1;fill-rule:nonzero;stroke:none"
                 d="m 0,0 h 16.667 v 5.951 h 3.395 V -9.992 h -3.395 v 5.937 L 0,-4.055 Z" /></g><g
               transform="rotate(-90,593.08425,-476.76927)"
               id="g168"><path
                 inkscape:connector-curvature="0"
                 id="path170"
                 style="fill:#231f20;fill-opacity:1;fill-rule:nonzero;stroke:none"
                 d="M 0,0 H 20.062 V -3.942 L 6.666,-12.154 h 13.396 v -3.765 H 0 v 4.068 l 13.084,8.086 H 0 Z" /></g><g
               transform="rotate(-90,453.5393,-380.15452)"
               id="g238"><path
                 inkscape:connector-curvature="0"
                 id="path240"
                 style="fill:#231f20;fill-opacity:1;fill-rule:nonzero;stroke:none"
                 d="M 0,0 H 20.062 V -3.942 L 6.666,-12.154 h 13.396 v -3.765 H 0 v 4.068 l 13.083,8.086 H 0 Z" /></g><path
               inkscape:connector-curvature="0"
               id="path242"
               style="fill:#231f20;fill-opacity:1;fill-rule:nonzero;stroke:none;stroke-width:0.99999994"
               d="m 827.75922,94.60646 v -20.062 h -4.05 v 20.062 z" /><g
               transform="rotate(-90,485.8825,-347.47981)"
               id="g248"><path
                 inkscape:connector-curvature="0"
                 id="path250"
                 style="fill:#231f20;fill-opacity:1;fill-rule:nonzero;stroke:none"
                 d="M 0,0 H 20.062 V -14.873 H 16.667 V -4.05 H 12.219 V -14.121 H 8.842 V -4.05 H 3.382 V -15.256 H 0 Z" /></g><g
               transform="rotate(-90,559.7793,-451.40032)"
               id="g180"><path
                 inkscape:connector-curvature="0"
                 id="path182"
                 style="fill:#231f20;fill-opacity:1;fill-rule:nonzero;stroke:none"
                 d="M 0,0 7.446,2.766 0,5.475 Z m -7.936,-7.459 v 4.409 l 4.559,1.752 v 8.02 l -4.559,1.653 v 4.298 L 12.126,4.858 V 0.575 Z" /></g><g
               transform="rotate(-90,430.78736,-357.40257)"
               id="g252"><path
                 inkscape:connector-curvature="0"
                 id="path254"
                 style="fill:#231f20;fill-opacity:1;fill-rule:nonzero;stroke:none"
                 d="M 0,0 H 20.062 V -6.063 L 6.376,-9.702 20.062,-13.299 v -6.077 H 0 v 3.76 H 15.793 L 0,-11.631 v 3.9 l 15.793,3.97 H 0 Z" /></g><path
               inkscape:connector-curvature="0"
               id="path256"
               style="fill:#231f20;fill-opacity:1;fill-rule:nonzero;stroke:none;stroke-width:0.99999994"
               d="m 780.52742,94.42229 v -20.062 h -4.05 v 20.062 z" /><g
               transform="rotate(-90,462.22936,-324.23206)"
               id="g262"><path
                 inkscape:connector-curvature="0"
                 id="path264"
                 style="fill:#231f20;fill-opacity:1;fill-rule:nonzero;stroke:none"
                 d="M 0,0 H 20.062 V -3.943 L 6.666,-12.154 h 13.396 v -3.765 H 0 v 4.068 l 13.084,8.086 H 0 Z" /></g><g
               transform="matrix(0,-1,-1,0,965.26012,116.31499)"
               id="g206"><path
                 inkscape:connector-curvature="0"
                 id="path208"
                 style="fill:#231f20;fill-opacity:1;fill-rule:nonzero;stroke:none"
                 d="M 0,0 20.062,7.17 V 2.779 L 5.213,-2.298 20.062,-7.212 V -11.51 L 0,-4.326 Z" /></g><path
               inkscape:connector-curvature="0"
               id="path266"
               style="fill:#231f20;fill-opacity:1;fill-rule:nonzero;stroke:none;stroke-width:0.99999994"
               d="m 780.52742,160.53479 v -20.062 h -4.05 v 20.062 z" /><g
               transform="rotate(-90,476.19385,-301.65556)"
               id="g268"><path
                 inkscape:connector-curvature="0"
                 id="path270"
                 style="fill:#231f20;fill-opacity:1;fill-rule:nonzero;stroke:none"
                 d="M 0,0 H 3.382 V -8.73 H -4.61 c -0.823,0.85 -1.547,2.079 -2.172,3.69 -0.622,1.612 -0.935,3.242 -0.935,4.891 0,2.097 0.439,3.928 1.318,5.488 0.882,1.56 2.139,2.733 3.778,3.518 1.64,0.784 3.42,1.177 5.344,1.177 2.088,0 3.947,-0.439 5.573,-1.313 1.621,-0.878 2.868,-2.158 3.732,-3.848 0.668,-1.285 1,-2.888 1,-4.803 0,-2.489 -0.524,-4.437 -1.565,-5.834 -1.046,-1.401 -2.49,-2.303 -4.335,-2.704 l -0.752,4.021 c 0.985,0.285 1.766,0.818 2.336,1.598 0.569,0.78 0.854,1.752 0.854,2.919 0,1.771 -0.56,3.177 -1.681,4.223 C 6.759,5.339 5.096,5.858 2.887,5.858 0.509,5.858 -1.28,5.33 -2.471,4.27 -3.662,3.214 -4.255,1.827 -4.255,0.112 c 0,-0.85 0.168,-1.7 0.499,-2.555 0.332,-0.85 0.738,-1.583 1.21,-2.195 H 0 Z" /></g><g
               transform="rotate(-90,494.9635,-291.55891)"
               id="g272"><path
                 inkscape:connector-curvature="0"
                 id="path274"
                 style="fill:#231f20;fill-opacity:1;fill-rule:nonzero;stroke:none"
                 d="m 0,0 h 20.062 v -4.055 h -7.894 v -7.936 h 7.894 v -4.05 H 0 v 4.05 h 8.772 v 7.936 H 0 Z" /></g><g
               transform="rotate(-90,502.83461,-277.68732)"
               id="g276"><path
                 inkscape:connector-curvature="0"
                 id="path278"
                 style="fill:#231f20;fill-opacity:1;fill-rule:nonzero;stroke:none"
                 d="m 0,0 h 16.667 v 5.951 h 3.395 V -9.991 h -3.395 v 5.936 H 0 Z" /></g><g
               transform="rotate(-90,405.76641,-332.38162)"
               id="g280"><path
                 inkscape:connector-curvature="0"
                 id="path282"
                 style="fill:#231f20;fill-opacity:1;fill-rule:nonzero;stroke:none"
                 d="m 0,0 h 20.062 v -13.756 h -3.395 v 9.702 h -4.746 v -8.375 H 8.525 v 8.375 H 0 Z" /></g><path
               inkscape:connector-curvature="0"
               id="path284"
               style="fill:#231f20;fill-opacity:1;fill-rule:nonzero;stroke:none;stroke-width:0.99999994"
               d="m 733.29462,94.60646 v -20.062 h -4.05 v 20.062 z" /><g
               transform="rotate(-90,438.65035,-300.24766)"
               id="g290"><path
                 inkscape:connector-curvature="0"
                 id="path292"
                 style="fill:#231f20;fill-opacity:1;fill-rule:nonzero;stroke:none"
                 d="M 0,0 H 20.062 V -14.873 H 16.667 V -4.05 H 12.22 V -14.121 H 8.843 V -4.05 H 3.382 V -15.256 H 0 Z" /></g><g
               transform="rotate(-90,495.282,-385.84701)"
               id="g230"><path
                 inkscape:connector-curvature="0"
                 id="path232"
                 style="fill:#231f20;fill-opacity:1;fill-rule:nonzero;stroke:none"
                 d="m 0,0 0.388,-3.942 c -1.327,-0.234 -2.299,-0.715 -2.92,-1.444 -0.616,-0.724 -0.929,-1.7 -0.929,-2.933 0,-1.304 0.275,-2.289 0.831,-2.948 0.551,-0.663 1.196,-0.995 1.934,-0.995 0.476,0 0.878,0.14 1.21,0.421 0.336,0.275 0.626,0.761 0.869,1.457 0.168,0.472 0.457,1.555 0.878,3.241 0.537,2.173 1.2,3.696 1.985,4.569 1.103,1.233 2.448,1.85 4.036,1.85 1.023,0 1.976,-0.29 2.868,-0.869 0.888,-0.579 1.565,-1.415 2.032,-2.504 0.463,-1.093 0.696,-2.405 0.696,-3.947 0,-2.522 -0.551,-4.414 -1.654,-5.689 -1.107,-1.27 -2.578,-1.939 -4.423,-2.004 l -0.178,4.05 c 1.033,0.172 1.775,0.546 2.224,1.116 0.453,0.57 0.677,1.425 0.677,2.565 0,1.176 -0.238,2.102 -0.724,2.765 -0.308,0.429 -0.724,0.644 -1.242,0.644 -0.477,0 -0.883,-0.2 -1.22,-0.602 -0.429,-0.509 -0.878,-1.752 -1.34,-3.723 -0.468,-1.971 -0.949,-3.429 -1.444,-4.372 -0.499,-0.944 -1.177,-1.682 -2.041,-2.219 -0.864,-0.532 -1.929,-0.799 -3.195,-0.799 -1.149,0 -2.228,0.318 -3.228,0.958 -1.004,0.64 -1.751,1.541 -2.237,2.709 -0.491,1.168 -0.733,2.625 -0.733,4.368 0,2.536 0.583,4.484 1.756,5.843 C -3.952,-1.074 -2.242,-0.262 0,0" /></g><g
               transform="rotate(-90,376.46991,-313.12762)"
               id="g294"><path
                 inkscape:connector-curvature="0"
                 id="path296"
                 style="fill:#231f20;fill-opacity:1;fill-rule:nonzero;stroke:none"
                 d="m 0,0 c -2.27,0 -3.994,-0.528 -5.166,-1.575 -1.172,-1.05 -1.756,-2.382 -1.756,-3.998 0,-1.612 0.579,-2.938 1.747,-3.975 1.162,-1.033 2.905,-1.551 5.231,-1.551 2.298,0 4.012,0.505 5.148,1.509 1.13,1.009 1.695,2.35 1.695,4.017 0,1.673 -0.574,3.018 -1.719,4.041 C 4.036,-0.514 2.312,0 0,0 m -0.135,4.171 c 2.046,0 3.76,-0.303 5.147,-0.916 1.018,-0.457 1.939,-1.078 2.752,-1.868 0.807,-0.789 1.41,-1.654 1.802,-2.593 0.533,-1.251 0.795,-2.69 0.795,-4.325 0,-2.957 -0.916,-5.32 -2.752,-7.095 -1.831,-1.775 -4.381,-2.663 -7.647,-2.663 -3.241,0 -5.773,0.883 -7.604,2.644 -1.826,1.761 -2.742,4.115 -2.742,7.058 0,2.985 0.911,5.358 2.728,7.119 1.822,1.761 4.33,2.639 7.521,2.639" /></g><g
               transform="rotate(-90,393.30249,-298.69603)"
               id="g298"><path
                 inkscape:connector-curvature="0"
                 id="path300"
                 style="fill:#231f20;fill-opacity:1;fill-rule:nonzero;stroke:none"
                 d="M 0,0 H 20.062 V -3.942 L 6.666,-12.154 h 13.396 v -3.765 H 0 v 4.069 l 13.084,8.085 H 0 Z" /></g><g
               transform="rotate(-90,403.991,-287.67602)"
               id="g302"><path
                 inkscape:connector-curvature="0"
                 id="path304"
                 style="fill:#231f20;fill-opacity:1;fill-rule:nonzero;stroke:none"
                 d="M 0,0 H 20.062 V -14.873 H 16.667 V -4.05 H 12.22 V -14.121 H 8.842 V -4.05 H 3.382 V -15.256 H 0 Z" /></g><g
               transform="rotate(-90,475.0044,-358.68942)"
               id="g244"><path
                 inkscape:connector-curvature="0"
                 id="path246"
                 style="fill:#231f20;fill-opacity:1;fill-rule:nonzero;stroke:none"
                 d="M 0,0 H 20.062 V -3.942 L 6.666,-12.154 h 13.396 v -3.765 H 0 v 4.069 l 13.083,8.085 H 0 Z" /></g><g
               transform="rotate(-90,356.10546,-282.72067)"
               id="g306"><path
                 inkscape:connector-curvature="0"
                 id="path308"
                 style="fill:#231f20;fill-opacity:1;fill-rule:nonzero;stroke:none"
                 d="m 0,0 h 16.667 v 5.951 h 3.395 V -9.991 h -3.395 v 5.937 L 0,-4.054 Z" /></g><g
               transform="rotate(-90,369.52029,-274.91383)"
               id="g310"><path
                 inkscape:connector-curvature="0"
                 id="path312"
                 style="fill:#231f20;fill-opacity:1;fill-rule:nonzero;stroke:none"
                 d="M 0,0 H 20.062 V -14.873 H 16.667 V -4.05 H 12.22 V -14.121 H 8.842 V -4.05 H 3.382 V -15.256 H 0 Z" /></g><g
               transform="rotate(-90,335.45916,-262.07437)"
               id="g318"><path
                 inkscape:connector-curvature="0"
                 id="path320"
                 style="fill:#231f20;fill-opacity:1;fill-rule:nonzero;stroke:none"
                 d="M 0,0 H 20.062 V -3.942 L 6.666,-12.154 h 13.396 v -3.765 H 0 v 4.068 l 13.084,8.086 H 0 Z" /></g><g
               transform="rotate(-90,340.0188,-255.11433)"
               id="g322"><path
                 inkscape:connector-curvature="0"
                 id="path324"
                 style="fill:#231f20;fill-opacity:1;fill-rule:nonzero;stroke:none"
                 d="m 0,0 c -2.27,0 -3.994,-0.528 -5.167,-1.574 -1.172,-1.051 -1.756,-2.383 -1.756,-3.998 0,-1.612 0.579,-2.939 1.747,-3.976 1.163,-1.032 2.906,-1.551 5.232,-1.551 2.298,0 4.012,0.505 5.148,1.509 1.13,1.009 1.695,2.35 1.695,4.018 0,1.672 -0.574,3.017 -1.719,4.04 C 4.036,-0.514 2.312,0 0,0 M -0.136,4.171 C 1.91,4.171 3.625,3.868 5.012,3.256 6.03,2.798 6.95,2.177 7.763,1.388 c 0.808,-0.79 1.411,-1.654 1.803,-2.593 0.533,-1.252 0.794,-2.691 0.794,-4.326 0,-2.956 -0.915,-5.32 -2.751,-7.095 -1.831,-1.775 -4.381,-2.663 -7.647,-2.663 -3.241,0 -5.773,0.883 -7.604,2.644 -1.826,1.761 -2.742,4.116 -2.742,7.059 0,2.984 0.911,5.357 2.728,7.118 1.822,1.761 4.33,2.639 7.52,2.639" /></g><g
               transform="rotate(-90,350.53206,-244.60107)"
               id="g326"><path
                 inkscape:connector-curvature="0"
                 id="path328"
                 style="fill:#231f20;fill-opacity:1;fill-rule:nonzero;stroke:none"
                 d="m 0,0 c -2.27,0 -3.994,-0.528 -5.167,-1.575 -1.172,-1.05 -1.756,-2.382 -1.756,-3.998 0,-1.612 0.579,-2.938 1.747,-3.975 1.163,-1.033 2.906,-1.551 5.232,-1.551 2.298,0 4.012,0.505 5.148,1.509 1.13,1.009 1.695,2.35 1.695,4.017 0,1.673 -0.574,3.018 -1.719,4.041 C 4.036,-0.514 2.312,0 0,0 M -0.136,4.171 C 1.91,4.171 3.625,3.868 5.012,3.255 6.03,2.798 6.95,2.177 7.763,1.387 8.571,0.598 9.174,-0.267 9.566,-1.206 c 0.533,-1.251 0.794,-2.69 0.794,-4.325 0,-2.957 -0.915,-5.32 -2.751,-7.095 -1.831,-1.775 -4.381,-2.663 -7.647,-2.663 -3.241,0 -5.773,0.883 -7.604,2.644 -1.826,1.761 -2.742,4.115 -2.742,7.058 0,2.985 0.911,5.358 2.728,7.119 1.822,1.761 4.33,2.639 7.52,2.639" /></g><g
               transform="rotate(-90,440.82659,-342.03282)"
               id="g258"><path
                 inkscape:connector-curvature="0"
                 id="path260"
                 style="fill:#231f20;fill-opacity:1;fill-rule:nonzero;stroke:none"
                 d="m 0,0 h -13.285 v -3.022 c 0,-1.13 0.061,-1.948 0.192,-2.453 0.163,-0.653 0.439,-1.2 0.831,-1.634 0.392,-0.435 1.042,-0.785 1.939,-1.061 0.896,-0.271 2.125,-0.411 3.676,-0.411 1.551,0 2.737,0.14 3.568,0.411 0.832,0.276 1.481,0.659 1.944,1.149 0.467,0.496 0.78,1.122 0.943,1.878 C -0.061,-4.578 0,-3.471 0,-1.817 Z m 3.396,4.05 v -7.404 c 0,-1.667 -0.126,-2.938 -0.383,-3.816 -0.346,-1.177 -0.963,-2.186 -1.85,-3.022 -0.883,-0.841 -1.967,-1.481 -3.246,-1.92 -1.285,-0.434 -2.864,-0.654 -4.747,-0.654 -1.649,0 -3.073,0.205 -4.269,0.617 -1.457,0.499 -2.639,1.214 -3.541,2.148 -0.686,0.701 -1.219,1.649 -1.602,2.845 -0.285,0.892 -0.425,2.088 -0.425,3.587 V 4.05 Z" /></g><g
               transform="rotate(-90,367.96811,-229.56542)"
               id="g330"><path
                 inkscape:connector-curvature="0"
                 id="path332"
                 style="fill:#231f20;fill-opacity:1;fill-rule:nonzero;stroke:none"
                 d="M 0,0 H 20.062 V -3.943 L 6.666,-12.154 h 13.396 v -3.765 H 0 v 4.068 l 13.084,8.086 H 0 Z" /></g><g
               transform="rotate(-90,308.6788,-241.82603)"
               id="g334"><path
                 inkscape:connector-curvature="0"
                 id="path336"
                 style="fill:#231f20;fill-opacity:1;fill-rule:nonzero;stroke:none"
                 d="m 0,0 0.388,-3.942 c -1.327,-0.234 -2.298,-0.715 -2.92,-1.444 -0.616,-0.724 -0.929,-1.7 -0.929,-2.933 0,-1.304 0.275,-2.289 0.831,-2.948 0.551,-0.663 1.196,-0.994 1.934,-0.994 0.476,0 0.878,0.139 1.21,0.42 0.336,0.276 0.626,0.761 0.869,1.457 0.168,0.472 0.457,1.555 0.878,3.242 0.537,2.172 1.2,3.695 1.985,4.568 1.103,1.234 2.448,1.85 4.036,1.85 1.023,0 1.976,-0.29 2.868,-0.869 0.888,-0.579 1.565,-1.415 2.032,-2.504 0.463,-1.092 0.696,-2.405 0.696,-3.946 0,-2.523 -0.551,-4.415 -1.654,-5.69 -1.107,-1.27 -2.578,-1.938 -4.423,-2.004 l -0.177,4.05 c 1.032,0.173 1.774,0.547 2.223,1.116 0.453,0.57 0.677,1.425 0.677,2.565 0,1.177 -0.238,2.102 -0.724,2.765 -0.308,0.43 -0.724,0.645 -1.242,0.645 -0.477,0 -0.883,-0.201 -1.22,-0.603 C 6.909,-5.708 6.46,-6.95 5.998,-8.921 5.53,-10.893 5.049,-12.35 4.554,-13.294 c -0.499,-0.943 -1.177,-1.681 -2.041,-2.219 -0.864,-0.532 -1.929,-0.799 -3.195,-0.799 -1.149,0 -2.228,0.318 -3.228,0.958 -1.004,0.64 -1.751,1.541 -2.237,2.709 -0.491,1.168 -0.733,2.625 -0.733,4.368 0,2.536 0.583,4.484 1.756,5.843 C -3.952,-1.074 -2.242,-0.262 0,0" /></g><g
               transform="rotate(-90,322.28835,-227.68188)"
               id="g338"><path
                 inkscape:connector-curvature="0"
                 id="path340"
                 style="fill:#231f20;fill-opacity:1;fill-rule:nonzero;stroke:none"
                 d="M 0,0 H 20.062 V -14.873 H 16.667 V -4.05 H 12.22 V -14.121 H 8.842 V -4.05 H 3.382 V -15.256 H 0 Z" /></g><g
               transform="rotate(-90,344.18646,-205.78377)"
               id="g346"><path
                 inkscape:connector-curvature="0"
                 id="path348"
                 style="fill:#231f20;fill-opacity:1;fill-rule:nonzero;stroke:none"
                 d="M 0,0 H 20.062 V -14.873 H 16.667 V -4.05 H 12.22 V -14.121 H 8.842 V -4.05 H 3.382 V -15.256 H 0 Z" /></g><g
               transform="rotate(-90,424.8775,-308.56252)"
               id="g286"><path
                 inkscape:connector-curvature="0"
                 id="path288"
                 style="fill:#231f20;fill-opacity:1;fill-rule:nonzero;stroke:none"
                 d="M 0,0 20.062,7.17 V 2.779 L 5.213,-2.298 20.062,-7.212 V -11.51 L 0,-4.326 Z" /></g><g
               transform="rotate(-90,380.5403,-264.22532)"
               id="g314"><path
                 inkscape:connector-curvature="0"
                 id="path316"
                 style="fill:#231f20;fill-opacity:1;fill-rule:nonzero;stroke:none"
                 d="M 0,0 H 20.062 V -3.942 L 6.666,-12.154 h 13.396 v -3.765 H 0 v 4.068 l 13.084,8.086 H 0 Z" /></g><g
               transform="rotate(-90,330.4136,-214.09862)"
               id="g342"><path
                 inkscape:connector-curvature="0"
                 id="path344"
                 style="fill:#231f20;fill-opacity:1;fill-rule:nonzero;stroke:none"
                 d="M 0,0 20.062,7.17 V 2.779 L 5.213,-2.298 20.062,-7.212 V -11.51 L 0,-4.326 Z" /></g><g
               transform="rotate(-90,355.19916,-195.10257)"
               id="g350"><path
                 inkscape:connector-curvature="0"
                 id="path352"
                 style="fill:#231f20;fill-opacity:1;fill-rule:nonzero;stroke:none"
                 d="M 0,0 H 20.062 V -3.943 L 6.666,-12.154 h 13.396 v -3.765 H 0 v 4.068 l 13.084,8.086 H 0 Z" /></g><g
               transform="rotate(-90,261.44695,-194.59417)"
               id="g354"><path
                 inkscape:connector-curvature="0"
                 id="path356"
                 style="fill:#231f20;fill-opacity:1;fill-rule:nonzero;stroke:none"
                 d="m 0,0 0.388,-3.942 c -1.327,-0.234 -2.299,-0.715 -2.92,-1.444 -0.616,-0.724 -0.929,-1.7 -0.929,-2.933 0,-1.304 0.275,-2.289 0.831,-2.948 0.551,-0.663 1.196,-0.994 1.934,-0.994 0.476,0 0.878,0.139 1.21,0.42 0.336,0.276 0.626,0.761 0.868,1.457 0.169,0.472 0.458,1.555 0.879,3.242 0.537,2.172 1.2,3.695 1.985,4.568 1.102,1.234 2.448,1.85 4.036,1.85 1.023,0 1.976,-0.29 2.868,-0.869 0.888,-0.579 1.565,-1.415 2.032,-2.504 0.462,-1.092 0.696,-2.405 0.696,-3.946 0,-2.523 -0.551,-4.415 -1.654,-5.69 -1.107,-1.27 -2.578,-1.938 -4.423,-2.004 l -0.178,4.05 c 1.033,0.173 1.775,0.547 2.224,1.116 0.453,0.57 0.677,1.425 0.677,2.565 0,1.177 -0.238,2.102 -0.724,2.765 -0.308,0.43 -0.724,0.645 -1.242,0.645 -0.477,0 -0.884,-0.201 -1.22,-0.603 C 6.909,-5.708 6.46,-6.95 5.998,-8.921 5.53,-10.893 5.049,-12.35 4.554,-13.294 c -0.5,-0.943 -1.177,-1.681 -2.041,-2.219 -0.864,-0.532 -1.929,-0.799 -3.195,-0.799 -1.149,0 -2.228,0.318 -3.228,0.958 -1.004,0.64 -1.751,1.541 -2.237,2.709 -0.491,1.168 -0.733,2.625 -0.733,4.368 0,2.536 0.583,4.484 1.756,5.843 C -3.952,-1.074 -2.242,-0.262 0,0" /></g><path
               inkscape:connector-curvature="0"
               id="path358"
               style="fill:#231f20;fill-opacity:1;fill-rule:nonzero;stroke:none;stroke-width:0.99999994"
               d="m 449.90342,94.60646 v -20.062 h -4.05 v 20.062 z" /><g
               transform="rotate(-90,287.68656,-214.30178)"
               id="g364"><path
                 inkscape:connector-curvature="0"
                 id="path366"
                 style="fill:#231f20;fill-opacity:1;fill-rule:nonzero;stroke:none"
                 d="m 0,0 h 20.062 v -13.756 h -3.395 v 9.702 H 11.92 v -8.375 H 8.525 v 8.375 H 0 Z" /></g><g
               transform="rotate(-90,292.7869,-207.88244)"
               id="g368"><path
                 inkscape:connector-curvature="0"
                 id="path370"
                 style="fill:#231f20;fill-opacity:1;fill-rule:nonzero;stroke:none"
                 d="m 0,0 c -2.27,0 -3.994,-0.528 -5.167,-1.574 -1.172,-1.051 -1.756,-2.383 -1.756,-3.999 0,-1.612 0.579,-2.938 1.747,-3.975 1.163,-1.033 2.906,-1.551 5.232,-1.551 2.298,0 4.012,0.505 5.147,1.509 1.131,1.009 1.696,2.35 1.696,4.017 0,1.673 -0.575,3.018 -1.719,4.041 C 4.036,-0.514 2.312,0 0,0 M -0.136,4.171 C 1.91,4.171 3.625,3.868 5.012,3.255 6.03,2.798 6.95,2.177 7.763,1.387 8.571,0.598 9.174,-0.267 9.566,-1.206 c 0.533,-1.251 0.794,-2.69 0.794,-4.325 0,-2.956 -0.915,-5.32 -2.751,-7.095 -1.831,-1.775 -4.381,-2.663 -7.647,-2.663 -3.241,0 -5.773,0.883 -7.604,2.644 -1.827,1.761 -2.742,4.116 -2.742,7.058 0,2.985 0.911,5.358 2.728,7.119 1.822,1.761 4.33,2.639 7.52,2.639" /></g><g
               transform="rotate(-90,313.44945,-186.62577)"
               id="g376"><path
                 inkscape:connector-curvature="0"
                 id="path378"
                 style="fill:#231f20;fill-opacity:1;fill-rule:nonzero;stroke:none"
                 d="m 0,0 v -2.994 c 0,-1.943 0.08,-3.158 0.243,-3.644 0.163,-0.481 0.448,-0.859 0.85,-1.135 0.402,-0.271 0.902,-0.411 1.504,-0.411 0.677,0 1.219,0.182 1.635,0.542 0.416,0.36 0.677,0.869 0.789,1.528 0.042,0.326 0.066,1.312 0.066,2.956 V 0 Z M -11.58,4.055 H 8.483 v -8.53 c 0,-2.144 -0.183,-3.699 -0.542,-4.671 -0.36,-0.972 -1,-1.751 -1.92,-2.335 -0.925,-0.584 -1.976,-0.874 -3.162,-0.874 -1.505,0 -2.752,0.444 -3.733,1.326 -0.976,0.883 -1.597,2.21 -1.849,3.971 -0.514,-0.879 -1.075,-1.602 -1.687,-2.172 -0.611,-0.57 -1.695,-1.336 -3.256,-2.303 l -3.914,-2.452 v 4.844 l 4.368,2.929 c 1.56,1.041 2.541,1.751 2.947,2.134 0.407,0.383 0.682,0.789 0.836,1.219 0.15,0.43 0.224,1.108 0.224,2.042 V 0 h -8.375 z" /></g><g
               transform="rotate(-90,238.02536,-164.64058)"
               id="g380"><path
                 inkscape:connector-curvature="0"
                 id="path382"
                 style="fill:#231f20;fill-opacity:1;fill-rule:nonzero;stroke:none"
                 d="m 0,0 h 16.667 v 5.951 h 3.395 V -9.991 h -3.395 v 5.937 L 0,-4.054 Z" /></g><g
               transform="rotate(-90,251.81395,-157.20749)"
               id="g384"><path
                 inkscape:connector-curvature="0"
                 id="path386"
                 style="fill:#231f20;fill-opacity:1;fill-rule:nonzero;stroke:none"
                 d="M 0,0 20.062,4.788 V 0.645 L 6.283,-2.382 20.062,-6.049 v -4.816 l -14.013,-3.518 14.013,-3.078 v -4.078 L 0,-16.667 v 4.298 L 14.999,-8.375 0,-4.391 Z" /></g><g
               transform="rotate(-90,217.21338,-143.8286)"
               id="g392"><path
                 inkscape:connector-curvature="0"
                 id="path394"
                 style="fill:#231f20;fill-opacity:1;fill-rule:nonzero;stroke:none"
                 d="M 0,0 H 20.062 V -14.873 H 16.667 V -4.05 H 12.22 V -14.121 H 8.842 V -4.05 H 3.382 V -15.256 H 0 Z" /></g><g
               transform="rotate(-90,227.49972,-133.05626)"
               id="g396"><path
                 inkscape:connector-curvature="0"
                 id="path398"
                 style="fill:#231f20;fill-opacity:1;fill-rule:nonzero;stroke:none"
                 d="M 0,0 H 19.899 V -4.05 H 3.382 V -14.121 H 0 Z" /></g><g
               transform="rotate(-90,246.99335,-108.59066)"
               id="g404"><path
                 inkscape:connector-curvature="0"
                 id="path406"
                 style="fill:#231f20;fill-opacity:1;fill-rule:nonzero;stroke:none"
                 d="M 0,0 20.062,7.17 V 2.779 L 5.213,-2.298 20.062,-7.212 V -11.51 L 0,-4.325 Z" /></g><g
               transform="rotate(-90,286.7597,-170.44472)"
               id="g360"><path
                 inkscape:connector-curvature="0"
                 id="path362"
                 style="fill:#231f20;fill-opacity:1;fill-rule:nonzero;stroke:none"
                 d="m 0,0 10.468,-6.857 9.594,6.212 v -4.731 l -6.446,-4.027 6.446,-3.938 v -4.694 l -9.744,6.24 L 0,-18.652 v 4.886 L 6.937,-9.319 0,-4.858 Z" /></g><g
               transform="rotate(-90,260.56929,-100.4727)"
               id="g408"><path
                 inkscape:connector-curvature="0"
                 id="path410"
                 style="fill:#231f20;fill-opacity:1;fill-rule:nonzero;stroke:none"
                 d="M 0,0 H 20.062 V -14.873 H 16.667 V -4.05 H 12.22 V -14.121 H 8.842 V -4.05 H 3.382 V -15.256 H 0 Z" /></g><g
               transform="rotate(-90,271.72034,-89.653149)"
               id="g412"><path
                 inkscape:connector-curvature="0"
                 id="path414"
                 style="fill:#231f20;fill-opacity:1;fill-rule:nonzero;stroke:none"
                 d="M 0,0 H 20.062 V -3.942 L 6.666,-12.154 h 13.396 v -3.765 H 0 v 4.068 l 13.084,8.086 H 0 Z" /></g><g
               transform="rotate(-90,193.59735,-120.21256)"
               id="g416"><path
                 inkscape:connector-curvature="0"
                 id="path418"
                 style="fill:#231f20;fill-opacity:1;fill-rule:nonzero;stroke:none"
                 d="M 0,0 H 20.062 V -14.873 H 16.667 V -4.05 H 12.22 V -14.121 H 8.842 V -4.05 H 3.382 V -15.256 H 0 Z" /></g><path
               inkscape:connector-curvature="0"
               id="path420"
               style="fill:#231f20;fill-opacity:1;fill-rule:nonzero;stroke:none;stroke-width:0.99999994"
               d="m 308.20658,94.60646 v -20.062 h -4.05 v 20.062 z" /><g
               transform="rotate(-90,226.27779,-87.875098)"
               id="g426"><path
                 inkscape:connector-curvature="0"
                 id="path428"
                 style="fill:#231f20;fill-opacity:1;fill-rule:nonzero;stroke:none"
                 d="m 0,0 h 20.062 v -4.055 h -7.894 v -7.936 h 7.894 v -4.05 H 0 v 4.05 h 8.772 v 7.936 H 0 Z" /></g><g
               transform="rotate(-90,299.59441,-203.68342)"
               id="g372"><path
                 inkscape:connector-curvature="0"
                 id="path374"
                 style="fill:#231f20;fill-opacity:1;fill-rule:nonzero;stroke:none"
                 d="m 0,0 v -4.05 h -10.865 c -1.724,0 -2.845,-0.052 -3.354,-0.15 -0.822,-0.172 -1.481,-0.588 -1.976,-1.237 -0.5,-0.654 -0.747,-1.546 -0.747,-2.677 0,-1.149 0.233,-2.018 0.705,-2.602 0.467,-0.584 1.046,-0.934 1.728,-1.051 0.687,-0.121 1.822,-0.177 3.41,-0.177 H 0 v -4.05 h -10.538 c -2.411,0 -4.111,0.107 -5.106,0.327 -0.995,0.219 -1.831,0.621 -2.518,1.209 -0.681,0.589 -1.228,1.378 -1.634,2.36 -0.407,0.985 -0.608,2.274 -0.608,3.863 0,1.915 0.22,3.367 0.664,4.358 0.444,0.99 1.018,1.77 1.723,2.345 0.705,0.574 1.448,0.952 2.224,1.135 1.149,0.266 2.844,0.397 5.091,0.397 z" /></g><g
               transform="rotate(-90,256.06771,-150.13673)"
               id="g388"><path
                 inkscape:connector-curvature="0"
                 id="path390"
                 style="fill:#231f20;fill-opacity:1;fill-rule:nonzero;stroke:none"
                 d="m 0,0 c -2.27,0 -3.994,-0.528 -5.166,-1.574 -1.172,-1.051 -1.756,-2.383 -1.756,-3.999 0,-1.612 0.579,-2.938 1.747,-3.975 1.163,-1.033 2.905,-1.551 5.231,-1.551 2.298,0 4.013,0.505 5.148,1.509 1.13,1.009 1.695,2.35 1.695,4.017 0,1.673 -0.574,3.018 -1.719,4.041 C 4.036,-0.514 2.313,0 0,0 m -0.135,4.171 c 2.046,0 3.76,-0.303 5.147,-0.916 1.018,-0.457 1.939,-1.078 2.752,-1.868 0.807,-0.789 1.41,-1.654 1.802,-2.593 0.533,-1.251 0.795,-2.69 0.795,-4.325 0,-2.957 -0.916,-5.32 -2.752,-7.095 -1.831,-1.775 -4.381,-2.663 -7.647,-2.663 -3.241,0 -5.773,0.883 -7.604,2.644 -1.826,1.761 -2.742,4.116 -2.742,7.058 0,2.985 0.911,5.358 2.728,7.119 1.822,1.761 4.33,2.639 7.521,2.639" /></g><g
               transform="rotate(-90,238.67849,-122.3635)"
               id="g400"><path
                 inkscape:connector-curvature="0"
                 id="path402"
                 style="fill:#231f20;fill-opacity:1;fill-rule:nonzero;stroke:none"
                 d="M 0,0 H 20.062 V -14.873 H 16.667 V -4.05 H 12.22 V -14.121 H 8.842 V -4.05 H 3.382 V -15.256 H 0 Z" /></g><g
               transform="rotate(-90,207.06399,-98.465998)"
               id="g422"><path
                 inkscape:connector-curvature="0"
                 id="path424"
                 style="fill:#231f20;fill-opacity:1;fill-rule:nonzero;stroke:none"
                 d="m 0,0 h 3.381 v -8.73 h -7.992 c -0.822,0.85 -1.546,2.079 -2.172,3.69 -0.621,1.612 -0.934,3.242 -0.934,4.891 0,2.097 0.439,3.928 1.317,5.488 0.883,1.56 2.14,2.733 3.779,3.517 1.64,0.785 3.419,1.178 5.344,1.178 2.088,0 3.947,-0.439 5.573,-1.313 1.621,-0.878 2.868,-2.158 3.732,-3.849 0.668,-1.285 0.999,-2.887 0.999,-4.802 0,-2.489 -0.523,-4.437 -1.565,-5.834 -1.045,-1.402 -2.489,-2.303 -4.334,-2.704 l -0.752,4.021 c 0.985,0.285 1.766,0.818 2.335,1.598 0.57,0.78 0.855,1.751 0.855,2.919 0,1.771 -0.56,3.177 -1.681,4.223 C 6.759,5.339 5.096,5.858 2.887,5.858 0.509,5.858 -1.28,5.33 -2.471,4.27 -3.662,3.214 -4.255,1.827 -4.255,0.112 c 0,-0.85 0.168,-1.7 0.499,-2.555 0.332,-0.85 0.738,-1.583 1.21,-2.195 H 0 Z" /></g><g
               transform="rotate(-90,184.32509,-79.590096)"
               id="g442"><path
                 inkscape:connector-curvature="0"
                 id="path444"
                 style="fill:#231f20;fill-opacity:1;fill-rule:nonzero;stroke:none"
                 d="m 0,0 v -2.994 c 0,-1.943 0.08,-3.157 0.243,-3.644 0.163,-0.481 0.448,-0.859 0.85,-1.134 0.402,-0.271 0.902,-0.412 1.504,-0.412 0.677,0 1.219,0.183 1.635,0.542 0.416,0.36 0.678,0.869 0.789,1.528 0.042,0.326 0.066,1.312 0.066,2.957 V 0 Z M -11.58,4.055 H 8.483 v -8.53 c 0,-2.144 -0.182,-3.699 -0.542,-4.671 -0.36,-0.971 -1,-1.751 -1.92,-2.335 -0.925,-0.584 -1.976,-0.874 -3.162,-0.874 -1.505,0 -2.752,0.444 -3.733,1.327 -0.976,0.883 -1.597,2.209 -1.849,3.97 -0.514,-0.878 -1.075,-1.602 -1.686,-2.172 -0.612,-0.57 -1.696,-1.335 -3.256,-2.303 l -3.915,-2.452 v 4.844 l 4.368,2.929 c 1.56,1.041 2.541,1.751 2.947,2.134 0.407,0.384 0.682,0.79 0.836,1.22 0.15,0.429 0.224,1.107 0.224,2.041 V 0 h -8.375 z" /></g><g
               transform="rotate(-90,234.14926,-74.052673)"
               id="g430"><path
                 inkscape:connector-curvature="0"
                 id="path432"
                 style="fill:#231f20;fill-opacity:1;fill-rule:nonzero;stroke:none"
                 d="m 0,0 h 16.667 v 5.951 h 3.395 V -9.991 h -3.395 v 5.936 H 0 Z" /></g><g
               transform="rotate(-90,167.17755,-93.792763)"
               id="g434"><path
                 inkscape:connector-curvature="0"
                 id="path436"
                 style="fill:#231f20;fill-opacity:1;fill-rule:nonzero;stroke:none"
                 d="m 0,0 h 16.667 v 5.951 h 3.395 V -9.991 h -3.395 v 5.937 L 0,-4.054 Z" /></g><g
               transform="rotate(-90,180.78865,-86.182187)"
               id="g438"><path
                 inkscape:connector-curvature="0"
                 id="path440"
                 style="fill:#231f20;fill-opacity:1;fill-rule:nonzero;stroke:none"
                 d="m 0,0 h 20.062 v -4.055 h -7.894 v -7.936 h 7.894 v -4.05 H 0 v 4.05 h 8.772 v 7.936 H 0 Z" /></g><g
               transform="rotate(-90,202.49049,-64.087798)"
               id="g446"><path
                 inkscape:connector-curvature="0"
                 id="path448"
                 style="fill:#231f20;fill-opacity:1;fill-rule:nonzero;stroke:none"
                 d="M 0,0 H 20.062 V -14.873 H 16.667 V -4.05 H 12.22 V -14.121 H 8.842 V -4.05 H 3.382 V -15.256 H 0 Z" /></g><g
               transform="rotate(-90,213.33744,-53.240847)"
               id="g450"><path
                 inkscape:connector-curvature="0"
                 id="path452"
                 style="fill:#231f20;fill-opacity:1;fill-rule:nonzero;stroke:none"
                 d="M 0,0 H 20.062 V -14.873 H 16.667 V -4.05 H 12.22 V -14.121 H 8.842 V -4.05 H 3.382 V -15.256 H 0 Z" /></g></g></g></g></g></g></svg>